<svg width="960" height="540" viewBox="0 0 960 540" fill="none" xmlns="http://www.w3.org/2000/svg">
  <rect width="960" height="540" fill="#F5EEE6"/>
  <circle cx="480" cy="248" r="164" fill="#E7D8C7"/>
  <path d="M480 124L624 190V266C624 346 564 408 480 432C396 408 336 346 336 266V190L480 124Z" fill="#5A3A2B"/>
  <path d="M480 166L590 216V266C590 330 543 380 480 402C417 380 370 330 370 266V216L480 166Z" fill="#F5EEE6"/>
  <circle cx="480" cy="284" r="46" fill="#E8B283"/>
  <path d="M456 260L504 308" stroke="#5A3A2B" stroke-width="12" stroke-linecap="round"/>
  <path d="M504 260L456 308" stroke="#5A3A2B" stroke-width="12" stroke-linecap="round"/>
  <text x="480" y="438" text-anchor="middle" font-size="56" font-family="Arial, sans-serif" font-weight="700" fill="#5A3A2B">403</text>
  <text x="480" y="470" text-anchor="middle" font-size="22" font-family="Arial, sans-serif" fill="#7A5A46">Access Forbidden</text>
</svg>
